<?xml version="1.0" encoding="UTF-8" standalone="no"?>
<!-- Created with Inkscape (http://www.inkscape.org/) -->

<svg
   width="400mm"
   height="478.15002mm"
   viewBox="0 0 400 478.15002"
   version="1.1"
   id="svg7919"
   xmlns="http://www.w3.org/2000/svg"
   xmlns:svg="http://www.w3.org/2000/svg">
  <defs
     id="defs7916" />
  <g
     id="layer1">
    <g
       id="g3018"
       transform="matrix(0.84287268,0,0,-0.8399475,-180.19682,760.69904)">
      <path
         d="m 214.7939,620.816 8e-4,283.8297 H 686.7748 L 687.3406,620.816 C 688.8138,447.3283 539.6587,348.912 451.0667,337.415 360.343,354.8469 215.659,441.1908 214.7939,620.816 Z"
         style="fill:#fcd213;fill-opacity:1;fill-rule:evenodd;stroke:#231f20;stroke-width:2.01;stroke-linecap:butt;stroke-linejoin:miter;stroke-miterlimit:22.9256;stroke-dasharray:none;stroke-opacity:1"
         id="path3020" />
    </g>
    <g
       id="g3022"
       transform="matrix(0.82254973,0,0,-0.82104243,-180.19682,760.69904)">
      <path
         d="m 226.0562,635.9851 8e-4,283.8299 h 471.9804 l 0.5658,-283.8299 C 700.0761,462.4977 550.9213,364.0813 462.3293,352.5843 371.6056,370.0162 226.9216,456.3601 226.0562,635.9851 Z"
         style="fill:#ffffff;fill-opacity:1;fill-rule:evenodd;stroke:#231f20;stroke-width:2.0563;stroke-linecap:butt;stroke-linejoin:miter;stroke-miterlimit:22.9256;stroke-dasharray:none;stroke-opacity:1"
         id="path3024" />
    </g>
    <g
       id="g3026"
       transform="matrix(1.2518227,0,0,-1.2773701,-180.19682,760.69904)">
      <path
         d="m 152.8407,409.3719 6e-4,178.0115 h 301.3871 l 0.3615,-178.0115 C 455.5304,300.5643 360.286,238.8399 303.715,231.6291 245.7825,242.562 153.3932,296.7151 152.8407,409.3719"
         style="fill:#231f20;fill-opacity:1;fill-rule:evenodd;stroke:none"
         id="path3028" />
    </g>
    <g
       id="g3030"
       transform="matrix(0.78594031,0,0,-0.78302788,-180.19682,760.69904)">
      <path
         d="m 250.1478,667.9412 3e-4,283.8296 h 467.2128 l 0.5602,-283.8296 C 719.3795,494.4532 571.731,396.0377 484.0339,384.5401 394.2264,401.972 251.0036,488.3159 250.1478,667.9412 Z"
         style="fill:#1a68bb;fill-opacity:1;fill-rule:evenodd;stroke:#1a68bb;stroke-width:2.1563;stroke-linecap:butt;stroke-linejoin:miter;stroke-miterlimit:22.9256;stroke-dasharray:none;stroke-opacity:1"
         id="path3032" />
    </g>
    <g
       id="g3034"
       transform="matrix(0.94682508,0.26322768,0.26322768,-0.94682508,-180.19682,760.69904)">
      <path
         d="m 179.2168,659.5112 c -9.2699,2.6374 -22.8838,11.7153 -31.8433,18.059 -4.748,-5.0636 -10.3365,-5.779 -15.5639,-4.2211 3.733,2.9341 7.8384,6.9732 6.764,9.3977 -0.7293,1.0536 -3.1283,2.2173 -3.846,2.6986 -5.0131,-4.5933 -11.5342,-5.654 -15.4511,-3.4501 3.9206,2.3664 7.3463,7.1672 5.578,8.6361 -1.0542,0.8742 -4.7012,2.8015 -6.419,2.7584 -11.609,-6.6904 -23.7552,0.5672 -21.9807,6.0882 l 7.6657,42.4046 c 8.5056,13.3914 28.2433,10.2481 22.7968,-6.8751 -1.4312,-7.0453 0.6316,-12.0977 1.9295,-13.9445 2.634,-4.3362 22.7138,-13.8127 26.7747,-15.73 27.0941,-12.7925 65.2583,-21.2077 89.2964,-25.8409 l -17.9022,-33.702 c -20.9868,0.8473 -28.3,5.2878 -47.7989,13.7211 z"
         style="fill:#fff200;fill-opacity:1;fill-rule:evenodd;stroke:#231f20;stroke-width:1.5327;stroke-linecap:butt;stroke-linejoin:round;stroke-miterlimit:22.9256;stroke-dasharray:none;stroke-opacity:1"
         id="path3036" />
    </g>
    <g
       id="g3038"
       transform="matrix(0,3.5472441,3.5472441,0,-180.19682,760.69904)">
      <path
         d="m -190.3836,86.3666 c 8.7236,0 15.7983,-7.0748 15.7983,-15.7984 0,-4.4422 -1.8345,-8.4574 -4.7871,-11.3278 3.99,4.8609 2.5764,19.3918 -10.984,19.6523 -11.7442,0.4349 -15.6719,-12.7394 -10.9386,-19.7481 -3.0107,2.8769 -4.8872,6.9316 -4.8872,11.4236 0,8.7236 7.075,15.7984 15.7986,15.7984 z"
         style="fill:#ffffff;fill-opacity:1;fill-rule:evenodd;stroke:#231f20;stroke-width:0.4246;stroke-linecap:butt;stroke-linejoin:round;stroke-miterlimit:22.9256;stroke-dasharray:none;stroke-opacity:1"
         id="path3040" />
    </g>
    <g
       id="g3042"
       transform="matrix(0.87885619,0,0,-0.87732336,-180.19682,760.69904)">
      <path
         d="m 452.3893,822.911 c 10.5599,1.8629 3.1037,17.0146 9.7855,18.5306 10.872,-7.384 19.0114,-25.0517 13.4875,-34.9758 -18.6363,-2.933 -23.4538,4.8228 -23.273,16.4452 z"
         style="fill:#fff200;fill-opacity:1;fill-rule:evenodd;stroke:#231f20;stroke-width:1.7169;stroke-linecap:butt;stroke-linejoin:round;stroke-miterlimit:22.9256;stroke-dasharray:none;stroke-opacity:1"
         id="path3044" />
    </g>
    <g
       id="g3046"
       transform="matrix(0.70946414,-0.29941556,-0.29901958,-0.70853165,-180.19682,760.69904)">
      <path
         d="m 795.9926,365.5797 c 4.0317,-30.5977 51.2476,-33.4253 52.7287,-4.513 1.7413,12.1272 2.4023,25.1155 2.2345,38.7643 -0.5641,22.8955 0.4153,47.0614 4.6834,69.2102 3.1068,17.8052 13.0207,33.0165 28.715,44.5362 9.142,7.2655 18.8127,14.2399 28.2192,21.3596 9.32,7.7828 7.8091,14.1608 -4.9754,18.0477 5.4136,4.8004 13.1794,7.1725 20.0432,4.1558 9.6327,-3.8996 14.5414,-14.8532 8.6845,-23.085 -3.2644,-4.5879 -9.3668,-8.928 -17.3007,-13.1083 13.6508,5.4122 27.3087,8.2239 44.7815,8.6528 30.2672,1.8294 40.5768,32.2891 20.1821,31.7341 -13.5924,-3.3548 -20.4052,-9.9561 -17.3087,-21.3009 -16.0781,2.7371 -20.9613,19.1145 -3.1935,29.8754 -18.2029,-9.8906 -38.4284,-6.8598 -49.2154,10.2138 -8.5813,20.7706 14.639,31.0014 31.9796,25.2179 -16.8842,-4.3297 -18.2052,-17.7066 -2.0179,-18.881 13.2653,-0.3379 24.061,3.0347 40.8483,1.4887 34.4892,-4.7582 43.7032,-50.2854 -0.2744,-71.5847 -20.9443,-8.9881 -32.417,-6.4604 -52.4381,-11.1623 -28.9023,-4.3537 -47.7122,-16.1036 -59.6177,-32.9125 13.3606,10.8655 22.2974,13.8884 42.0619,14.9551 29.2876,2.4349 59.2495,7.1642 67.9519,19.7348 2.9307,-11.6796 -2.4772,-26.0813 -28.77,-33.1504 -16.1328,-3.5356 -30.4061,-2.9245 -47.6906,-5.3144 -24.5121,-3.3746 -32.7745,-15.008 -38.4367,-28.5718 9.2166,10.2195 17.7885,11.2496 34.5195,12.5354 27.4263,1.171 48.7839,0.9629 63.8027,14.1304 0.9681,-14.4082 -4.2165,-27.6185 -27.8492,-30.2156 -15.4877,-1.5409 -39.606,0.3393 -54.0678,-6.9506 -12.6102,-6.3544 -15.0154,-12.0455 -16.7207,-22.2454 8.8064,9.1477 21.3302,9.769 33.0866,10.6458 18.14,1.3533 32.832,-0.5428 48.8738,9.5567 2.9965,-12.4795 -4.1309,-24.5611 -28.495,-26.7307 -14.0817,-1.6393 -26.4129,-1.8867 -35.7352,-4.261 -9.618,-2.45 -16.0334,-7.1643 -17.8646,-18.0085 8.04,5.2458 17.6313,6.2248 26.9385,6.1775 14.6844,-0.0748 29.1042,-0.6987 41.0607,9.1945 3.293,-9.19 -3.1167,-22.6012 -17.7236,-26.193 -16.147,-5.3317 -47.1971,4.4558 -51.2595,-12.1164 -4.7931,-34.3225 -61.8729,-48.1054 -81.7038,-5.0227 z"
         style="fill:#fff200;fill-opacity:1;fill-rule:evenodd;stroke:#231f20;stroke-width:1.9585;stroke-linecap:butt;stroke-linejoin:round;stroke-miterlimit:22.9256;stroke-dasharray:none;stroke-opacity:1"
         id="path3048" />
    </g>
    <g
       id="g3050"
       transform="matrix(0.68315032,0,0,-0.68322698,-180.19682,760.69904)">
      <path
         d="m 572.1769,762.1041 c -13.0793,-20.9491 -28.2126,-38.5537 -50.6857,-44.2128 -14.4272,-4.0788 -31.1182,-4.1202 -45.5142,-14.394 -8.4249,-6.6036 -11.8641,-10.1603 -17.6397,-19.8564 -10.8667,-18.4941 -23.8366,-14.9145 -34.7894,1.1245 -4.1989,-9.3779 2.2743,-22.6177 15.95,-25.4875 9.6645,-2.5248 21.82,2.7924 30.9189,18.4572 -7.9064,-15.6344 -1.4187,-27.1825 17.7095,-30.5886 3.7148,-0.7141 6.3521,-2.9636 7.0486,-5.3524 1.55,-5.3138 -8.2831,-10.7722 -12.1774,-12.0778 l -26.7241,-9.5559 c -10.0112,-3.5768 -27.5494,-13.9734 -31.6236,9.6851 -7.132,17.4765 -41.7555,8.0566 -33.1552,-10.9244 2.7907,-1.0897 5.7274,-3.2179 7.9844,-6.1433 7.1461,-0.7806 19.8048,-0.2931 25.0013,1.3303 -6.4616,-1.3558 -15.6683,-2.2266 -25.0013,-1.3303 -8.2554,10.2402 -21.0887,9.2648 -25.7403,0.3841 -3.8526,-7.5875 -3.1275,-20.8777 3.2031,-27.119 5.5508,-5.2849 15.9268,-9.0859 24.0611,0.3339 4.1351,-1.6124 10.5182,0.8441 16.6836,3.9821 5.2704,2.6833 10.383,5.8652 13.7948,7.4276 -9.5707,-5.1758 -24.8806,-14.3062 -30.4784,-11.4097 -0.5794,-0.6452 -1.4069,-1.4791 -2.0339,-2.05 -4.6434,-3.3483 -5.4411,-8.5706 -4.521,-14.4703 2.014,-8.9507 6.5792,-18.7699 21.1539,-18.0743 5.7251,-0.0805 13.6108,6.1617 13.9008,12.2871 4.4422,10.7005 10.9085,9.3364 18.1301,10.4 -1.8323,-3.225 -2.1535,-4.9694 -1.9724,-6.9389 1.9321,-15.1657 27.7268,-15.5875 32.3867,-1.9508 3.9487,9.5221 -6.8278,13.5005 -4.043,17.479 14.3458,-3.1306 11.1225,-17.212 34.4182,-11.1464 -12.016,4.82 -15.3819,11.9466 -13.3188,18.098 0.7869,2.6017 5.3288,4.4958 7.3652,2.6229 7.9518,-6.8785 12.3871,-21.8557 37.1257,-14.2081 -20.0988,6.6702 -20.7862,15.1419 -18.5568,20.0228 1.747,3.0538 6.2907,4.4127 8.1672,1.4389 13.4884,-18.9808 25.3117,-17.716 41.3626,-9.4408 -11.0305,-0.3016 -29.3105,4.0119 -24.8757,17.4413 1.5429,2.2615 4.951,3.0626 6.9517,1.3768 16.609,-18.5522 41.3215,-13.3362 43.8259,8.5601 -9.7983,-12.5068 -30.0685,-11.6689 -30.2369,10.0669 -0.1443,9.1154 0.0433,18.5633 -7.9229,22.8821 l -17.3435,9.4249 c -4.3849,2.3786 -5.0825,7.8064 -5.2611,9.8161 9.1429,-5.5048 66.8526,23.2277 81.3521,58.1315 z"
         style="fill:#fff200;fill-opacity:1;fill-rule:evenodd;stroke:#231f20;stroke-width:2.2045;stroke-linecap:butt;stroke-linejoin:round;stroke-miterlimit:22.9256;stroke-dasharray:none;stroke-opacity:1"
         id="path3052" />
    </g>
    <g
       id="g3054"
       transform="matrix(0.67456638,-0.10798886,-0.10800164,-0.67463026,-180.19682,760.69904)">
      <path
         d="m 575.386,582.8066 c -0.4535,-6.1081 2.8364,-10.0032 8.6893,-12.384"
         style="fill:none;stroke:#231f20;stroke-width:2.2045;stroke-linecap:butt;stroke-linejoin:round;stroke-miterlimit:22.9256;stroke-dasharray:none;stroke-opacity:1"
         id="path3056" />
    </g>
    <g
       id="g3058"
       transform="matrix(0.68315032,0,0,-0.68322698,-180.19682,760.69904)">
      <path
         d="m 489.0291,604.4902 24.8907,8.9719"
         style="fill:none;stroke:#231f20;stroke-width:2.2045;stroke-linecap:butt;stroke-linejoin:round;stroke-miterlimit:22.9256;stroke-dasharray:none;stroke-opacity:1"
         id="path3060" />
    </g>
    <g
       id="g3062"
       transform="matrix(0.68315032,0,0,-0.68322698,-180.19682,760.69904)">
      <path
         d="m 541.0619,645.821 c 16.2875,-8.7831 11.3025,-22.2131 -7.0892,-26.7026"
         style="fill:none;stroke:#231f20;stroke-width:2.2045;stroke-linecap:butt;stroke-linejoin:round;stroke-miterlimit:22.9256;stroke-dasharray:none;stroke-opacity:1"
         id="path3064" />
    </g>
    <g
       id="g3066"
       transform="matrix(0.67247152,-0.12035381,-0.12036659,-0.67253539,-180.19682,760.69904)">
      <path
         d="m 643.4022,531.2991 c -0.0819,-5.1781 -2.8213,-7.297 -7.763,-6.88"
         style="fill:none;stroke:#231f20;stroke-width:2.2045;stroke-linecap:butt;stroke-linejoin:round;stroke-miterlimit:22.9256;stroke-dasharray:none;stroke-opacity:1"
         id="path3068" />
    </g>
    <g
       id="g3070"
       transform="matrix(-0.50444624,0.43512336,0.43562153,0.50502106,-180.19682,760.69904)">
      <path
         d="m -741.962,-239.8521 c -8.6987,6.3672 -10.1256,13.9736 -5.5273,22.6074 7.3443,0.9899 12.9425,-2.4795 17.0944,-9.6435 -10.2419,-0.1641 -12.6783,-5.4093 -11.5671,-12.9639 z"
         style="fill:#ee293d;fill-opacity:1;fill-rule:evenodd;stroke:#231f20;stroke-width:2.2584;stroke-linecap:butt;stroke-linejoin:round;stroke-miterlimit:22.9256;stroke-dasharray:none;stroke-opacity:1"
         id="path3072" />
    </g>
    <g
       id="g3074"
       transform="matrix(0.45695361,0.4914937,0.48892619,-0.45457773,-180.19682,760.69904)">
      <path
         d="m -195.0077,682.1342 c -6.6751,8.1264 -6.0503,15.8236 0.6247,23.1648 7.306,-0.6874 11.7678,-5.3082 13.8716,-13.1874 -9.8682,2.1388 -13.5813,-2.4018 -14.4963,-9.9774 z"
         style="fill:#ee293d;fill-opacity:1;fill-rule:evenodd;stroke:#231f20;stroke-width:2.2561;stroke-linecap:butt;stroke-linejoin:round;stroke-miterlimit:22.9256;stroke-dasharray:none;stroke-opacity:1"
         id="path3076" />
    </g>
    <g
       id="g3078"
       transform="matrix(0.64275989,0.15406362,0.15330997,-0.6396431,-180.19682,760.69904)">
      <path
         d="m 261.6987,646.4234 c -7.4126,7.6861 -7.3496,15.4051 -1.0907,23.1508 7.5002,-0.2248 12.3936,-4.553 15.1273,-12.2814 -10.2217,1.5109 -13.6692,-3.2533 -14.0366,-10.8694 z"
         style="fill:#ee293d;fill-opacity:1;fill-rule:evenodd;stroke:#231f20;stroke-width:2.2898;stroke-linecap:butt;stroke-linejoin:round;stroke-miterlimit:22.9256;stroke-dasharray:none;stroke-opacity:1"
         id="path3080" />
    </g>
    <g
       id="g3082"
       transform="matrix(-0.6112216,-0.25495032,0.25487367,-0.61103002,-180.19682,760.69904)">
      <path
         d="m -222.9701,699.084 c -8.545,6.6424 -9.6956,14.29 -4.7191,22.771 7.4593,0.7537 12.9826,-2.893 16.9024,-10.186 -10.3541,0.1644 -13.0164,-4.9989 -12.1833,-12.585 z"
         style="fill:#ee293d;fill-opacity:1;fill-rule:evenodd;stroke:#231f20;stroke-width:2.2751;stroke-linecap:butt;stroke-linejoin:round;stroke-miterlimit:22.9256;stroke-dasharray:none;stroke-opacity:1"
         id="path3084" />
    </g>
    <g
       id="g3086"
       transform="matrix(0.69431455,0,0,-0.69439116,-180.19682,760.69904)">
      <path
         d="m 564.2014,687.2255 c -12.0223,-8.2312 -25.704,-15.5466 -40.9451,-17.0881 -15.8921,-0.6366 -11.7697,-14.968 -5.5043,-21.7278"
         style="fill:none;stroke:#231f20;stroke-width:2.1691;stroke-linecap:butt;stroke-linejoin:round;stroke-miterlimit:22.9256;stroke-dasharray:none;stroke-opacity:1"
         id="path3088" />
    </g>
    <g
       id="g3090"
       transform="matrix(0.67823243,-0.04129739,-0.04129739,-0.67823243,-180.19682,760.69904)">
      <path
         d="m 601.7406,726.6257 c 1.1534,-10.4023 18.7631,-23.906 23.8674,-33.5166 2.122,-4.5065 1.6645,-8.0821 -0.0884,-10.4298 -13.5275,-11.2368 9.6108,-36.72 19.9856,-19.277 l 20.7182,15.2224 -30.2066,16.5968 c -8.1096,14.9176 -22.9068,26.4606 -34.2762,31.4042 z"
         style="fill:#fff200;fill-opacity:1;fill-rule:evenodd;stroke:#231f20;stroke-width:2.2167;stroke-linecap:butt;stroke-linejoin:miter;stroke-miterlimit:22.9256;stroke-dasharray:none;stroke-opacity:1"
         id="path3092" />
    </g>
    <g
       id="g3094"
       transform="matrix(0.68373792,0,0,-0.68322698,-180.19682,760.69904)">
      <path
         d="m 492.4828,870.6013 c -37.4524,-42.5508 12.3954,-68.114 39.4172,-92.3496 32.3447,-30.1436 42.2467,-27.5485 57.0421,-49.6123 -2.8301,-37.0179 1.1665,-48.6757 26.5224,-68.8881 24.5126,-18.0431 17.4518,-37.965 0.059,-55.4176 18.4116,-1.3017 33.0888,21.9566 27.5638,42.8615 9.6324,-5.7072 16.5183,-7.6708 26.3452,-10.3132 6.0355,-1.2805 11.4142,-6.2669 7.9625,-12.1635 l -6.1654,-11.7706 c -7.4508,-13.3489 -16.3034,-37.1548 -41.214,-35.2103 -22.8691,10.7813 -34.7505,-27.6845 -14.2206,-32.1108 3.2003,2.1807 3.0192,1.7764 5.0987,2.4882 7.5555,-1.1905 23.9664,10.5117 23.9066,16.1481 1.1794,-3.4792 -14.7087,-17.0206 -23.9066,-16.1486 -8.8968,-2.3724 -10.4034,-9.9275 -9.8552,-16.0719 1.8408,-24.0837 38.6852,-24.8134 37.7867,0.2982 5.1967,3.2329 8.0498,5.1301 10.3048,11.5534 1.523,3.8217 4.0731,5.3929 4.2488,18.5018 -0.2378,-13.6823 -3.5422,-16.3052 -4.2488,-18.5018 -10.173,-24.1242 18.9334,-29.8998 32.7106,-14.6766 5.931,5.269 6.6776,15.1217 -3.9112,21.1909 -0.5885,3.3123 -0.9989,8.1786 3.172,9.2396 21.1597,-27.2866 43.7609,25.1314 16.0613,21.5912 1.8882,7.8239 28.3794,-5.7821 32.6002,11.4426 -7.6646,-2.1906 -21.2278,0.4756 -20.4554,7.4962 6.9392,9.0559 31.1491,-6.2192 38.8987,18.7914 -14.2974,-5.8838 -27.58,-6.5542 -30.3239,4.5046 5.1789,12.6737 41.2858,-4.845 46.1021,25.8313 -10.9701,-8.8016 -38.0843,-12.193 -43.1269,2.8567 2.13,6.2527 15.524,5.26 28.9954,7.0141 13.5796,1.8246 22.9782,14.4995 18.7293,30.6402 -2.7411,-18.2446 -30.1853,-19.4287 -42.9968,-14.6049 -22.0291,9.017 -34.8273,6.3184 -41.6253,-3.6477 -5.4153,10.3774 -13.6772,21.822 -28.1421,25.7979 10.6784,21.4347 -2.7986,39.2476 -11.9168,47.7578 -7.2335,6.1376 -17.4374,22.2307 -20.4945,33.4684 -8.0677,29.9018 -7.7352,66.0305 -13.6891,100.2571 l -62.147,32.9347 z"
         style="fill:#fff200;fill-opacity:1;fill-rule:evenodd;stroke:#231f20;stroke-width:2.2045;stroke-linecap:butt;stroke-linejoin:round;stroke-miterlimit:22.9256;stroke-dasharray:none;stroke-opacity:1"
         id="path3096" />
    </g>
    <g
       id="g3098"
       transform="matrix(0.66817953,-0.14500705,-0.14490487,-0.66768137,-180.19682,760.69904)">
      <path
         d="m 794.6668,524.1447 c 5.8816,-1.6228 10.7694,-4.7529 12.1057,-13.2664"
         style="fill:none;stroke:#231f20;stroke-width:2.2045;stroke-linecap:butt;stroke-linejoin:round;stroke-miterlimit:22.9256;stroke-dasharray:none;stroke-opacity:1"
         id="path3100" />
    </g>
    <g
       id="g3102"
       transform="matrix(0.68226893,0.04473351,0.04470795,-0.68175798,-180.19682,760.69904)">
      <path
         d="m 659.1722,698.4326 c 13.3682,8.1884 22.1814,-4.2894 14.2679,-20.4222 6.277,-11.6787 -3.5632,-26.0399 -15.2714,-45.6531"
         style="fill:none;stroke:#231f20;stroke-width:2.2045;stroke-linecap:butt;stroke-linejoin:round;stroke-miterlimit:22.9256;stroke-dasharray:none;stroke-opacity:1"
         id="path3104" />
    </g>
    <g
       id="g3106"
       transform="matrix(0.67489849,0.10821879,0.10985384,-0.6745536,-180.19682,760.69904)">
      <path
         d="m 467.3018,932.1063 c 4.4793,-21.4044 10.9911,-43.1677 21.8807,-64.724 4.9495,-9.7982 11.6101,-20.2076 20.1594,-28.8337"
         style="fill:none;stroke:#231f20;stroke-width:2.2065;stroke-linecap:butt;stroke-linejoin:round;stroke-miterlimit:22.9256;stroke-dasharray:none;stroke-opacity:1"
         id="path3108" />
    </g>
    <g
       id="g3110"
       transform="matrix(0.29898124,0.44847189,0.44919998,-0.29946665,-180.19682,760.69904)">
      <path
         d="m -731.1376,1147.2497 c -7.7865,7.2978 -8.1921,15.008 -2.4806,23.0598 7.4208,0.1559 12.5158,-3.9169 15.6838,-11.4947 -10.1863,0.9895 -13.3021,-3.9422 -13.2032,-11.5651 z"
         style="fill:#ee293d;fill-opacity:1;fill-rule:evenodd;stroke:#231f20;stroke-width:2.7899;stroke-linecap:butt;stroke-linejoin:round;stroke-miterlimit:22.9256;stroke-dasharray:none;stroke-opacity:1"
         id="path3112" />
    </g>
    <g
       id="g3114"
       transform="matrix(0.64938942,0.11307281,0.11317499,-0.64997702,-180.19682,760.69904)">
      <path
         d="m 534.528,625.4308 c -7.7743,7.3097 -8.1663,15.0205 -2.4415,23.0636 7.4214,0.1454 12.5096,-3.9351 15.6643,-11.5175 -10.1843,1.0043 -13.3084,-3.9229 -13.2228,-11.5461 z"
         style="fill:#ee293d;fill-opacity:1;fill-rule:evenodd;stroke:#231f20;stroke-width:2.283;stroke-linecap:butt;stroke-linejoin:round;stroke-miterlimit:22.9256;stroke-dasharray:none;stroke-opacity:1"
         id="path3116" />
    </g>
    <g
       id="g3118"
       transform="matrix(0.17646869,0.63280917,0.63286026,-0.17648147,-180.19682,760.69904)">
      <path
         d="m -403.7156,752.1001 c -7.2919,7.7187 -7.1884,15.4375 -0.9573,23.1559 7.4177,-0.2582 12.2355,-4.6083 14.8981,-12.348 -10.1024,1.5554 -13.5372,-3.1935 -13.9408,-10.8079 z"
         style="fill:#ee293d;fill-opacity:1;fill-rule:evenodd;stroke:#231f20;stroke-width:2.2927;stroke-linecap:butt;stroke-linejoin:round;stroke-miterlimit:22.9256;stroke-dasharray:none;stroke-opacity:1"
         id="path3120" />
    </g>
    <g
       id="g3122"
       transform="matrix(0.34680597,-0.56738227,-0.56592605,-0.34591183,-180.19682,760.69904)">
      <path
         d="m 819.3946,-334.5647 c -7.6411,7.355 -7.9764,15.0673 -2.2587,23.0771 7.3426,0.1021 12.3486,-4.0076 15.418,-11.6079 -10.0681,1.063 -13.1919,-3.8454 -13.1593,-11.4692 z"
         style="fill:#ee293d;fill-opacity:1;fill-rule:evenodd;stroke:#231f20;stroke-width:2.2708;stroke-linecap:butt;stroke-linejoin:round;stroke-miterlimit:22.9256;stroke-dasharray:none;stroke-opacity:1"
         id="path3124" />
    </g>
    <g
       id="g3126"
       transform="matrix(0.67920326,0.07337216,0.0733849,-0.6792671,-180.19682,760.69904)">
      <path
         d="m 472.46,871.7261 c -9.9796,-22.2834 -50.4241,-23.2999 -64.1922,-31.0544 -0.2245,-6.0403 -0.7316,-11.5787 -7.9767,-14.5233 -1.131,5.9732 -1.8309,11.9707 -6.5707,13.5213 -1.8819,0.8472 -3.9141,0.0728 -6.0968,-2.3236 1.0449,-10.1633 -0.9689,-16.5909 -8.0467,-19.9732 -0.3206,5.4148 -2.9724,11.524 -7.6714,13.972 -1.7297,0.5765 -3.5342,-0.0315 -5.415,-1.8241 0.4382,-11.5143 0.013,-15.3757 -8.6828,-19.5523 -0.1599,7.7616 -3.4744,11.2661 -7.9141,13.3878 -2.1327,0.6576 -3.994,0.1601 -5.5836,-1.4925 1.6894,-8.2 0.4569,-15.0593 -6.3494,-18.9978 -1.3269,6.9971 -5.8745,11.6071 -12.2643,12.0331 -9.6234,-2.7363 -9.7957,-7.9458 -4.0238,-11.0948 1.6197,-0.7685 4.657,-3.0863 5.2495,-3.9404 2.6971,-3.2885 1.8813,-8.6497 -0.5933,-11.1464 -4.2458,-4.248 -9.6718,-6.2807 -15.9061,-6.7992 -4.9532,0.3535 -8.8492,2.9877 -8.4654,7.3006 0.2707,5.7887 -2.8947,6.8131 -4.7265,6.8018 l -4.3747,-0.1171 c -4.6933,-0.0714 -11.2702,-8.2707 -14.9221,-12.6584 0.9521,-11.2235 -3.1456,-16.4775 -12.8599,-15.0902 -9.3935,3.2417 -13.4417,8.8044 -15.0597,15.4219 -0.9864,7.6654 3.1609,10.2889 10.4913,9.7837 9.0579,0.8218 15.1115,6.1436 14.5877,16.7349 -2.9968,2.7295 -12.5119,1.7822 -22.1984,1.1367 -7.7202,-9.7679 -17.3872,-5.9882 -20.6476,-0.2939 -2.9778,6.758 -2.8788,13.0065 1.9613,19.5106 5.3028,7.1291 12.5294,4.2902 16.6184,-0.5653 2.3655,-1.9502 8.4844,-2.5753 11.393,-2.3924 3.1459,0.2163 4.9887,1.3082 4.8844,5.9989 -1.0811,4.3166 -3.8775,8.1148 -9.6024,9.739 -5.8047,2.4169 -5.4759,8.2636 -3.2572,12.6482 3.1201,6.721 9.4439,10.8009 17.7672,8.2916 4.5726,-1.7333 7.9535,-4.8755 7.1025,-11.0486 -0.3376,-2.2668 -0.9632,-9.1879 2.9163,-12.4585 2.4075,-2.5523 4.284,-3.1003 8.46,-2.6527 6.7558,1.4593 11.9024,3.5363 17.1405,6.382 43.6318,23.7081 86.7425,46.0587 125.9034,76.1292 z"
         style="fill:#fff200;fill-opacity:1;fill-rule:evenodd;stroke:#231f20;stroke-width:2.2045;stroke-linecap:butt;stroke-linejoin:round;stroke-miterlimit:22.9256;stroke-dasharray:none;stroke-opacity:1"
         id="path3128" />
    </g>
    <g
       id="g3130"
       transform="matrix(-0.3045506,0.44103758,0.44260876,0.30563636,-180.19682,760.69904)">
      <path
         d="m -1126.3039,-246.9144 c -8.4731,6.5177 -9.7297,14.148 -5.006,22.6996 7.2845,0.8614 12.7508,-2.7048 16.7108,-9.9403 -10.1325,0.0154 -12.6496,-5.1868 -11.7048,-12.7593 z"
         style="fill:#ee293d;fill-opacity:1;fill-rule:evenodd;stroke:#231f20;stroke-width:2.8003;stroke-linecap:butt;stroke-linejoin:round;stroke-miterlimit:22.9256;stroke-dasharray:none;stroke-opacity:1"
         id="path3132" />
    </g>
    <g
       id="g3134"
       transform="matrix(0.3137221,0.43723101,0.43527664,-0.31231698,-180.19682,760.69904)">
      <path
         d="m -585.9754,901.7476 c -6.6796,8.1241 -6.0574,15.8215 0.614,23.1658 7.3063,-0.6848 11.77,-5.3039 13.8778,-13.1825 -9.8696,2.1348 -13.5807,-2.4069 -14.4918,-9.9833 z"
         style="fill:#ee293d;fill-opacity:1;fill-rule:evenodd;stroke:#231f20;stroke-width:2.8117;stroke-linecap:butt;stroke-linejoin:round;stroke-miterlimit:22.9256;stroke-dasharray:none;stroke-opacity:1"
         id="path3136" />
    </g>
    <g
       id="g3138"
       transform="matrix(0.5149079,0.1128301,0.11328996,-0.51701555,-180.19682,760.69904)">
      <path
         d="m 218.0974,1012.4631 c -7.7429,7.4844 -7.932,15.2017 -1.8596,23.112 7.5875,-0.024 12.6749,-4.219 15.6904,-11.8706 -10.3799,1.2356 -13.7087,-3.6184 -13.8308,-11.2414 z"
         style="fill:#ee293d;fill-opacity:1;fill-rule:evenodd;stroke:#231f20;stroke-width:2.8457;stroke-linecap:butt;stroke-linejoin:round;stroke-miterlimit:22.9256;stroke-dasharray:none;stroke-opacity:1"
         id="path3140" />
    </g>
    <g
       id="g3142"
       transform="matrix(-0.49337145,-0.19941026,0.19864383,-0.49148091,-180.19682,760.69904)">
      <path
         d="m -120.8908,1067.631 c -8.3741,6.8199 -9.3308,14.4893 -4.1406,22.8634 7.4761,0.5973 12.9056,-3.1646 16.6399,-10.5375 -10.347,0.3818 -13.14,-4.7251 -12.4993,-12.3259 z"
         style="fill:#ee293d;fill-opacity:1;fill-rule:evenodd;stroke:#231f20;stroke-width:2.8414;stroke-linecap:butt;stroke-linejoin:round;stroke-miterlimit:22.9256;stroke-dasharray:none;stroke-opacity:1"
         id="path3144" />
    </g>
    <g
       id="g3146"
       transform="matrix(0.88162809,0.18156538,0.18157816,-0.88171749,-180.19682,760.69904)">
      <path
         d="m 202.0445,655.3757 c 22.0756,10.4752 35.2315,17.1188 60.6384,33.204"
         style="fill:none;stroke:#231f20;stroke-width:1.6733;stroke-linecap:butt;stroke-linejoin:round;stroke-miterlimit:22.9256;stroke-dasharray:none;stroke-opacity:1"
         id="path3148" />
    </g>
    <path
       d="m 182.6846,183.6347 16.33272,21.89618 5.88471,4.353 6.05091,-15.55133 -12.47759,-14.66714 z"
       style="fill:#fff200;fill-opacity:1;fill-rule:evenodd;stroke:none;stroke-width:1.27737"
       id="path3150" />
    <g
       id="g3152"
       transform="matrix(0.6844277,0,0,-0.68322698,-180.19682,760.69904)">
      <path
         d="m 651.3293,952.0929 c -11.8491,-32.9922 -14.9873,-51.2493 10.8935,-44.4731 -5.8532,-11.2104 -13.6304,-16.9293 -28.646,-11.4834 -8.7225,-20.1144 -7.8157,-34.0739 20.0797,-26.1218 -2.6161,-10.2629 -14.2228,-19.8494 -29.7581,-10.7828 -0.6142,-9.4688 -2.1073,-21.302 16.4325,-20.5364 -17.6837,-16.014 -36.8638,-2.2598 -36.6475,12.1853 -10.1174,-18.1772 -18.6423,-29.7675 5.2815,-31.587 -15.622,-13.9323 -30.4903,-0.7753 -29.694,10.7229 0.1687,8.6581 8.7497,17.5184 4.6593,26.2783 -2.8882,-13.2299 -7.9316,-18.7144 -14.4853,-24.0455 -14.8025,-12.0399 -4.966,-27.4144 14.4879,-27.3407 -22.258,-11.4574 -43.8965,4.7021 -35.9014,21.5371 5.4057,9.6179 17.3611,19.4845 16.2181,28.8538 -5.7611,-7.2473 -10.8224,-15.4256 -18.07,-20.6966 -8.0674,-6.474 -19.9607,-10.5463 -20.0457,-15.8987 -1.0644,-7.882 11.2303,-4.9546 15.0823,-1.7107 -1.5452,-15.8587 -15.7026,-19.1018 -25.1776,-10.2719 -8.4504,10.0514 -1.4814,19.4327 8.4852,26.1913 -14.0599,-5.0187 -31.6548,-15.0316 -16.4004,-27.0295 6.8635,-7.4891 21.0217,-7.9804 11.2983,-26.8645 -3.5566,7.6811 -10.1027,14.0672 -20.1348,18.942 -16.9713,8.244 -20.4528,15.3944 -9.2038,32.4649 3.7318,5.51 8.1706,10.7436 12.7559,15.9191 -8.4472,-5.3737 -15.2804,-11.3624 -17.494,-16.9144 -5.9998,-14.0516 -10.5313,-16.5044 -16.8658,-19.1449 -10.2065,-3.0447 -21.1819,4.8198 -18.5366,12.9966 4.7454,-4.8334 13.4614,-3.5629 17.6904,0.8391 1.4783,1.8343 2.7252,3.9191 3.822,6.6727 1.4363,3.9702 3.2499,7.4086 5.5142,10.3927 4.5964,7.0809 10.8471,11.2036 20.2672,18.4056 -7.155,-4.4943 -7.6309,-5.2977 -12.0538,-8.591 -8.7146,-6.4873 -22.3934,-11.8672 -33.2065,-13.7066 -13.5578,-1.8762 -20.9545,-5.7379 -25.4418,-12.4756 -7.2674,13.502 1.7643,18.4893 16.2686,21.5964 3.0943,0.663 6.5549,1.7795 9.7796,2.9381 8.5413,3.0611 16.1257,7.7275 19.5871,15.578 -15.1427,-10.3748 -27.9944,-16.2011 -40.3781,-13.1581 -4.8901,1.5222 -8.6151,2.8678 -11.039,3.5359 -6.567,2.1867 -10.9559,-0.2491 -9.7101,-5.5995 0.2676,-1.5679 1.1084,-2.8253 2.3559,-5.1307 -18.7574,8.6788 -11.8069,22.6573 -1.027,24.2577 4.665,0.6928 10.984,-0.1706 16.4835,-2.5931 10.4913,-3.8024 18.7081,-0.3186 27.5162,10.4474 39.0622,35.0532 53.1096,29.2892 82.4105,42.9664 l 53.6204,27.5505 z"
         style="fill:#fff200;fill-opacity:1;fill-rule:evenodd;stroke:#231f20;stroke-width:2.2045;stroke-linecap:butt;stroke-linejoin:round;stroke-miterlimit:22.9256;stroke-dasharray:none;stroke-opacity:1"
         id="path3154" />
    </g>
    <g
       id="g3156"
       transform="matrix(0.59354281,0,0,-0.59101362,-180.19682,760.69904)">
      <path
         d="m 619.9466,1122.3587 c -0.8197,6.4621 1.7771,10.7895 4.9414,13.0955 1.7203,-6.5279 2.8831,-9.0766 5.9601,-12.875 z"
         style="fill:#ee293d;fill-opacity:1;fill-rule:evenodd;stroke:#231f20;stroke-width:2.5486;stroke-linecap:butt;stroke-linejoin:round;stroke-miterlimit:22.9256;stroke-dasharray:none;stroke-opacity:1"
         id="path3158" />
    </g>
    <g
       id="g3160"
       transform="matrix(0.62054641,0.02817879,0.02806383,-0.61788947,-180.19682,760.69904)">
      <path
         d="m 505.7935,1141.6847 c -12.3684,6.3613 -27.7915,-8.3789 -17.1604,-25.8826 15.5225,-19.997 44.409,-9.5176 64.8558,-3.9016 30.9368,7.2941 55.5069,5.4542 57.1071,-11.1305 l 5.9774,12.7369 c -11.2674,13.2849 -46.9463,12.3506 -63.0507,8.7078 -6.1557,-1.3258 -25.6334,-6.5807 -39.8543,-4.0068 -9.7089,1.832 -19.6217,12.3747 -7.8749,23.4768 z"
         style="fill:#ee293d;fill-opacity:1;fill-rule:evenodd;stroke:#231f20;stroke-width:2.4352;stroke-linecap:butt;stroke-linejoin:round;stroke-miterlimit:22.9256;stroke-dasharray:none;stroke-opacity:1"
         id="path3162" />
    </g>
    <g
       id="g3164"
       transform="matrix(0.61470884,0,0,-0.61209021,-180.19682,760.69904)">
      <path
         d="m 612.7523,1082.3825 c -0.82,6.4627 1.7771,10.7898 4.9408,13.0958 1.7212,-6.5279 2.884,-9.0763 5.9604,-12.8752 z"
         style="fill:#ee293d;fill-opacity:1;fill-rule:evenodd;stroke:#231f20;stroke-width:2.4608;stroke-linecap:butt;stroke-linejoin:round;stroke-miterlimit:22.9256;stroke-dasharray:none;stroke-opacity:1"
         id="path3166" />
    </g>
    <g
       id="g3168"
       transform="matrix(0.59596982,0.32189728,-0.32293195,0.59788585,-180.19682,760.69904)">
      <path
         d="m -9.6735,-1140.8695 c 3.7301,5.4408 8.6944,7.0594 12.7358,6.7779 -3.0683,-6.0695 -3.8812,-8.755 -4.0394,-13.6213 l -11.4763,1.817 z"
         style="fill:#ee293d;fill-opacity:1;fill-rule:evenodd;stroke:#231f20;stroke-width:2.2167;stroke-linecap:butt;stroke-linejoin:round;stroke-miterlimit:22.9256;stroke-dasharray:none;stroke-opacity:1"
         id="path3170" />
    </g>
    <g
       id="g3172"
       transform="matrix(0.59596982,0.32189728,-0.32293195,0.59788585,-180.19682,760.69904)">
      <path
         d="m 1.9032,-1150.0523 c 3.7301,5.4408 8.6944,7.06 12.7352,6.7782 -3.0677,-6.0693 -3.8809,-8.7545 -4.0394,-13.6213 l -11.476,1.817 z"
         style="fill:#ee293d;fill-opacity:1;fill-rule:evenodd;stroke:#231f20;stroke-width:2.2167;stroke-linecap:butt;stroke-linejoin:round;stroke-miterlimit:22.9256;stroke-dasharray:none;stroke-opacity:1"
         id="path3174" />
    </g>
    <g
       id="g3176"
       transform="matrix(0.6844277,0,0,-0.68322698,-180.19682,760.69904)">
      <path
         d="m 656.3222,1018.6336 c 2.2397,-8.9827 8.8918,-6.9211 16.7794,-1.7682 -0.3481,-11.8543 -7.2935,-17.3719 -17.6618,-14.6254 5.4065,-12.2451 1.8244,-24.6231 2.649,-34.2346 -0.3714,-7.2215 8.4203,-7.5994 16.7785,-7.0721 -3.9359,-11.5971 -16.5996,-14.8085 -23.5386,-8.8404 -0.3194,-16.6581 -8.6309,-29.7933 -23.7912,-40.2353 -4.8974,-5.2118 -0.4612,-8.0481 8.6219,-7.1521 -15.9571,-18.6911 -28.47,4.5434 -35.693,-7.0013 -0.8836,-5.4249 3.0025,-9.5227 11.6569,-12.2955 -23.4317,-11.2641 -32.44,11.997 -40.0014,3.8083 -6.6268,-9.8493 7.6102,-14.1701 16.0464,-16.8313 -26.8708,-16.285 -28.872,13.7756 -41.7629,10.8301 -9.1275,-3.7225 -2.2725,-15.3882 11.0424,-21.2216 -30.3205,-6.2575 -40.3455,14.5684 -19.5038,33.918 -9.7205,-6.2725 -21.3125,-11.9073 -34.6969,-13.4215 -11.7887,-2.4568 -1.5854,-11.2074 8.7954,-8.5856 -8.1879,-8.2579 -24.3037,-7.8137 -28.3065,3.4628 -2.276,6.4128 2.4188,14.2342 12.5886,15.8091 14.1024,2.1379 22.0791,5.7183 26.6412,12.6924 -7.1776,-8.5453 -21.1391,-7.0676 -31.3915,-9.07 -14.5369,-2.211 -17.6133,-9.3217 -21.4477,-16.1498 -4.1023,8.5734 -3.8971,16.624 2.508,21.7213 7.049,5.1216 14.643,4.5774 24.0081,5.6132 -17.5388,6.2779 -18.5023,1.1749 -29.391,-3.5912 -8.9816,-3.8195 -15.3746,-2.9821 -21.6465,6.8504 7.4024,0.0562 13.5209,2.5555 17.3908,4.633 2.7933,1.6361 4.3985,3.6028 7.9313,5.5879 9.216,5.2994 17.6621,-2.8023 33.9271,-1.671 -7.9869,0.0675 -15.1847,0.4844 -22.4252,4.1009 -8.9926,4.4541 -14.2931,1.4479 -19.9321,-2.3848 -11.9574,-8.0719 -25.3576,-1.3031 -26.0311,9.599 6.5659,-2.5558 13.6091,-4.8722 19.8312,-0.2631 2.6257,1.9446 4.8169,4.9581 8.1102,6.4891 10.2033,4.7432 20.0809,-3.6097 29.497,-5.8079 14.9338,-2.556 27.5023,-2.5753 35.8537,1.9284 -10.902,0.1437 -16.423,1.6458 -24.6523,7.8261 -10.0117,9.1035 -18.4578,6.8108 -27.3325,-0.3174 -1.6384,16.9455 15.9554,21.9089 26.1901,14.1361 7.8616,-6.2972 14.3371,-10.6526 23.8371,-11.0478 15.8429,-0.6483 22.237,5.9976 32.1908,19.1361 -7.6906,-9.8189 -17.8154,-24.0369 -31.9637,-12.8205 5.8416,0.8178 19.2027,8.2505 18.1202,13.4433 -5.595,-5.3067 -18.1276,-13.8027 -30.4268,-4.0317 21.3264,5.8785 12.9489,13.576 23.4604,14.7169 12.6093,-2.2428 31.4231,-1.571 39.1631,2.7369 8.9232,5.0261 8.051,25.791 -2.6342,29.0327 -7.9954,1.2492 -18.3249,-1.2226 -25.1306,-4.2143 -19.0896,-9.2517 -30.8009,1.4188 -31.011,14.8981 -0.007,1.2407 0.144,3.6615 3.1215,5.5493 -2.9846,-0.5246 -4.8203,1.3757 -5.7396,3.0771 -0.972,2.2008 0.2651,5.4093 3.2576,7.8409 4.6709,4.2519 21.2454,14.3781 30.4314,16.5815 -0.6132,3.6516 3.2672,6.575 6.3819,8.0558 25.2227,11.7737 77.1678,16.1847 99.3007,-39.4203 z"
         style="fill:#fff200;fill-opacity:1;fill-rule:evenodd;stroke:#231f20;stroke-width:2.2045;stroke-linecap:butt;stroke-linejoin:round;stroke-miterlimit:22.9256;stroke-dasharray:none;stroke-opacity:1"
         id="path3178" />
    </g>
    <g
       id="g3180"
       transform="matrix(0.87271205,0.10124437,0.10114215,-0.87176678,-180.19682,760.69904)">
      <path
         d="m 376.378,870.8389 c 7.0716,8.3208 14.6234,12.8579 22.8138,12.3729 5.4335,-9.8648 5.7532,-19.6843 -0.0989,-29.4517 -18.7251,-2.4182 -23.2821,5.4669 -22.7149,17.0788 z"
         style="fill:#fff200;fill-opacity:1;fill-rule:evenodd;stroke:#231f20;stroke-width:1.7164;stroke-linecap:butt;stroke-linejoin:round;stroke-miterlimit:22.9256;stroke-dasharray:none;stroke-opacity:1"
         id="path3182" />
    </g>
    <g
       id="g3184"
       transform="matrix(0.87271205,0.10124437,0.10114215,-0.87176678,-180.19682,760.69904)">
      <path
         d="m 384.8905,866.9129 c 7.5492,8.8543 13.8166,5.9391 8.7689,-6.823"
         style="fill:none;stroke:#231f20;stroke-width:1.7164;stroke-linecap:butt;stroke-linejoin:round;stroke-miterlimit:22.9256;stroke-dasharray:none;stroke-opacity:1"
         id="path3186" />
    </g>
    <path
       d="m 234.98654,34.727951 c 2.64187,0.621454 5.33505,1.088078 7.76793,2.326096 l -3.32318,6.450583 6.69416,8.81832 7.71507,2.608526 2.27182,5.007694 -9.7406,1.280419 -10.52119,-4.510653 -4.42444,-9.436044 z"
       style="fill:#fff200;fill-opacity:1;fill-rule:evenodd;stroke:none;stroke-width:1.27737"
       id="path3188" />
    <g
       id="g3190"
       transform="matrix(0.61620337,0.46788791,0.46788791,-0.61620337,-180.19682,760.69904)">
      <path
         d="m -225.2951,864.2775 c -10.6412,-2.1628 -14.3036,1.8357 -19.082,5.7963 -3.7525,3.4177 -4.4158,7.9926 0.3257,11.7961 -6.2583,3.9455 -6.1863,10.4094 0.4459,15.8561 -6.3521,6.0163 -3.7726,14.9091 5.4732,15.6396 4.6349,-0.0459 9.0924,-0.6638 12.6935,-4.0376 5.1228,-6.8383 5.2132,-8.6366 -0.1193,-15.1172 3.1342,-5.0905 3.5937,-10.4587 0.1428,-16.234 4.4541,-6.0092 4.779,-10.6685 0.1202,-13.6993 z"
         style="fill:#fff200;fill-opacity:1;fill-rule:evenodd;stroke:#231f20;stroke-width:1.9468;stroke-linecap:butt;stroke-linejoin:round;stroke-miterlimit:22.9256;stroke-dasharray:none;stroke-opacity:1"
         id="path3192" />
    </g>
    <g
       id="g3194"
       transform="matrix(0.37220012,0.28261814,0.28261814,-0.37220012,-180.19682,760.69904)">
      <path
         d="m -396.1947,1483.3811 c 6.2192,-5.2747 13.0254,-6.1001 22.3628,-3.5943"
         style="fill:none;stroke:#231f20;stroke-width:3.223;stroke-linecap:butt;stroke-linejoin:miter;stroke-miterlimit:22.9256;stroke-dasharray:none;stroke-opacity:1"
         id="path3196" />
    </g>
    <g
       id="g3198"
       transform="matrix(0.41110881,0.31216371,0.31216371,-0.41110881,-180.19682,760.69904)">
      <path
         d="m -358.8106,1317.0305 c 6.9531,-4.644 13.9065,-4.763 20.8599,-0.3571"
         style="fill:none;stroke:#231f20;stroke-width:2.918;stroke-linecap:butt;stroke-linejoin:miter;stroke-miterlimit:22.9256;stroke-dasharray:none;stroke-opacity:1"
         id="path3200" />
    </g>
    <g
       id="g3202"
       transform="matrix(-0.545271,0.157372,-0.15762749,-0.54616514,-180.19682,760.69904)">
      <path
         d="m -807.9667,960.9752 c -7.7862,7.2987 -8.1919,15.0089 -2.4806,23.0596 7.4205,0.1567 12.5158,-3.9164 15.6841,-11.4939 -10.1866,0.9895 -13.3019,-3.9419 -13.2035,-11.5657 z"
         style="fill:#ee293d;fill-opacity:1;fill-rule:evenodd;stroke:#231f20;stroke-width:2.6498;stroke-linecap:butt;stroke-linejoin:round;stroke-miterlimit:22.9256;stroke-dasharray:none;stroke-opacity:1"
         id="path3204" />
    </g>
    <g
       id="g3206"
       transform="matrix(-0.53307211,0.13694683,-0.13717676,-0.53394072,-180.19682,760.69904)">
      <path
         d="m -785.7099,1001.8491 c -7.7862,7.2981 -8.1916,15.0083 -2.4806,23.0593 7.4208,0.1565 12.5164,-3.9164 15.6841,-11.4945 -10.1863,0.9896 -13.3019,-3.9422 -13.2035,-11.5648 z"
         style="fill:#ee293d;fill-opacity:1;fill-rule:evenodd;stroke:#231f20;stroke-width:2.7323;stroke-linecap:butt;stroke-linejoin:round;stroke-miterlimit:22.9256;stroke-dasharray:none;stroke-opacity:1"
         id="path3208" />
    </g>
    <g
       id="g3210"
       transform="matrix(-0.43605585,0.18077342,-0.18106722,-0.43675841,-180.19682,760.69904)">
      <path
         d="m -1053.7523,1018.9953 c -7.7862,7.2987 -8.1919,15.008 -2.4806,23.0593 7.4208,0.1565 12.5166,-3.9164 15.6841,-11.4942 -10.186,0.9896 -13.3016,-3.9419 -13.2035,-11.5651 z"
         style="fill:#ee293d;fill-opacity:1;fill-rule:evenodd;stroke:#231f20;stroke-width:3.1856;stroke-linecap:butt;stroke-linejoin:round;stroke-miterlimit:22.9256;stroke-dasharray:none;stroke-opacity:1"
         id="path3212" />
    </g>
    <g
       id="g3214"
       transform="matrix(-0.63570878,0.14482821,-0.14505814,-0.63666684,-180.19682,760.69904)">
      <path
         d="m -869.2787,390.1493 c -6.5401,8.3633 -5.5604,16.0319 1.6506,23.125 7.5138,-0.9527 11.9197,-5.7316 13.7509,-13.6814 -10.0967,2.4956 -14.1276,-1.9066 -15.4015,-9.4436 z"
         style="fill:#ee293d;fill-opacity:1;fill-rule:evenodd;stroke:#231f20;stroke-width:2.3066;stroke-linecap:butt;stroke-linejoin:round;stroke-miterlimit:22.9256;stroke-dasharray:none;stroke-opacity:1"
         id="path3216" />
    </g>
    <g
       id="g3218"
       transform="matrix(0.69431455,0,0,-0.69439116,-180.19682,760.69904)">
      <path
         d="m 552.0118,947.7051 c -1.8057,-9.0224 -10.6044,-24.8442 -21.1314,-28.7957 20.4446,-7.011 23.7648,16.1155 30.0438,20.7314 -4.8056,-18.7514 4.1706,-28.5208 17.3316,-24.2288 -6.2918,4.9929 -8.7894,18.5882 -4.187,31.1317 4.0569,-2.806 5.4669,-9.5275 4.2613,-20.6285 15.5143,3.7304 12.3236,16.8307 10.078,25.6924 5.0956,-8.129 21.2953,-18.1248 36.2826,-6.8176 -28.8626,0.8124 -15.3462,13.2913 -34.5773,29.603 11.0982,-7.9075 13.5034,-1.8215 24.4366,-15.5905 5.601,21.3899 -17.3639,24.8269 -25.4208,25.7159 9.1803,-1.2742 25.6351,3.7613 30.0133,15.1081 -31.1809,-11.8401 -25.3103,3.5126 -44.4453,3.3755"
         style="fill:none;stroke:#231f20;stroke-width:2.1691;stroke-linecap:butt;stroke-linejoin:round;stroke-miterlimit:22.9256;stroke-dasharray:none;stroke-opacity:1"
         id="path3220" />
    </g>
    <g
       id="g3222"
       transform="matrix(0.35904321,-0.22287556,-0.23426967,-0.38663441,-180.19682,760.69904)">
      <path
         d="m 1649.52,902.8919 c 0.041,-2.3763 0.7251,-3.4206 2.0925,-4.606 2.558,-2.217 7.6062,-3.3749 10.6144,-4.7016"
         style="fill:none;stroke:#231f20;stroke-width:3.2751;stroke-linecap:butt;stroke-linejoin:round;stroke-miterlimit:22.9256;stroke-dasharray:none;stroke-opacity:1"
         id="path3224" />
    </g>
    <g
       id="g3226"
       transform="matrix(1.0374289,-0.44457592,-0.48540064,-1.1069178,-180.19682,760.69904)">
      <path
         d="m 568.7938,418.843 c 8.3656,-1.4448 13.4161,-3.7945 14.5627,-8.8937 l -0.8258,-0.4011 c -0.6046,1.5511 -1.1795,3.1918 -2.2314,2.9367 -0.2149,-0.0247 -0.4561,-0.2166 -0.7129,-0.4825 -0.7648,-0.7923 -1.2747,-1.6404 -2.3547,-2.1163 -4.2798,-1.8842 -9.9752,1.2169 -8.7852,7.9248 z"
         style="fill:#231f20;fill-opacity:1;fill-rule:evenodd;stroke:#231f20;stroke-width:0.1321;stroke-linecap:butt;stroke-linejoin:miter;stroke-miterlimit:22.9256;stroke-dasharray:none;stroke-opacity:1"
         id="path3228" />
    </g>
    <g
       id="g3230"
       transform="matrix(1.0374289,-0.44457592,-0.48540064,-1.1069178,-180.19682,760.69904)">
      <path
         d="m 569.4089,417.5719 c 1.1109,-0.1485 3.3769,-0.4476 4.4733,-0.8234 -0.8226,-1.6563 -0.7662,-4.8467 0.6307,-6.6501 -3.0041,0.0553 -6.0987,3.2267 -5.104,7.4735 z"
         style="fill:#ffffff;fill-opacity:1;fill-rule:evenodd;stroke:#231f20;stroke-width:0.1321;stroke-linecap:butt;stroke-linejoin:miter;stroke-miterlimit:22.9256;stroke-dasharray:none;stroke-opacity:1"
         id="path3232" />
    </g>
    <path
       d="m 184.91185,69.991562 c 0.44348,0 0.80344,0.352675 0.80344,0.787471 0,0.43458 -0.35992,0.787255 -0.80344,0.787255 -0.44363,0 -0.80308,-0.352675 -0.80308,-0.787255 0,-0.434796 0.35955,-0.787471 0.80308,-0.787471"
       style="fill:#231f20;fill-opacity:1;fill-rule:evenodd;stroke:none;stroke-width:1.27737"
       id="path3234" />
    <path
       d="m 189.37344,65.772788 c 0.44363,0 0.80322,0.352313 0.80322,0.787219 0,0.434832 -0.35955,0.787507 -0.80322,0.787507 -0.44389,0 -0.80348,-0.352675 -0.80348,-0.787507 0,-0.434942 0.35956,-0.787219 0.80348,-0.787219"
       style="fill:#231f20;fill-opacity:1;fill-rule:evenodd;stroke:none;stroke-width:1.27737"
       id="path3236" />
    <path
       d="m 191.09915,71.218211 c 0.44364,0 0.80348,0.352675 0.80348,0.787255 0,0.434796 -0.35992,0.787471 -0.80348,0.787471 -0.44348,0 -0.80307,-0.352675 -0.80307,-0.787471 0,-0.43458 0.35955,-0.787255 0.80307,-0.787255"
       style="fill:#231f20;fill-opacity:1;fill-rule:evenodd;stroke:none;stroke-width:1.27737"
       id="path3238" />
    <g
       id="g3240"
       transform="matrix(0.70848056,0,0,-0.70848056,-180.19682,760.69904)">
      <path
         d="m 503.1054,986.7266 c 2.0429,-0.0862 4.3778,0.6017 6.2867,1.9119 -0.0122,-3.215 -2.5861,-5.3569 -6.2867,-5.0513 -0.557,1.5633 -0.5284,2.4072 0,3.1394 z"
         style="fill:#231f20;fill-opacity:1;fill-rule:evenodd;stroke:#231f20;stroke-width:0.5669;stroke-linecap:butt;stroke-linejoin:miter;stroke-miterlimit:22.9256;stroke-dasharray:none;stroke-opacity:1"
         id="path3242" />
    </g>
  </g>
</svg>
