<?xml version="1.0" encoding="UTF-8"?>
<svg xmlns="http://www.w3.org/2000/svg" xmlns:xlink="http://www.w3.org/1999/xlink" width="768px" height="752px" viewBox="0 0 768 752" version="1.1">
<g id="surface2">
<path style=" stroke:none;fill-rule:evenodd;fill:rgb(20%,60%,100%);fill-opacity:1;" d="M 50.113281 298.042969 L 722.6875 299.363281 L 755.65625 13.1875 L 11.867188 9.230469 Z M 50.113281 298.042969 "/>
<path style=" stroke:none;fill-rule:evenodd;fill:rgb(0%,60%,0%);fill-opacity:1;" d="M 389.039062 741.152344 L 272.984375 721.371094 L 163.527344 659.386719 L 97.589844 557.839844 L 71.214844 482.671875 L 46.15625 295.40625 L 722.6875 309.910156 L 701.589844 466.847656 L 665.980469 572.347656 L 593.449219 668.617188 L 489.265625 726.644531 Z M 389.039062 741.152344 "/>
<path style="fill:none;stroke-width:2.58265;stroke-linecap:butt;stroke-linejoin:miter;stroke:rgb(0%,0%,0%);stroke-opacity:1;stroke-miterlimit:4;" d="M 1.479004 1.334473 L 7.919922 54.883789 C 11.206543 79.396973 27.571777 92.366211 48.003906 92.366211 C 68.448242 92.366211 84.791504 79.396973 88.09375 54.883789 L 94.521484 1.334473 Z M 1.479004 1.334473 " transform="matrix(8,0,0,8,0,0)"/>
<path style=" stroke:none;fill-rule:evenodd;fill:rgb(0%,0%,0%);fill-opacity:1;" d="M 184.082031 523.046875 L 582.226562 523.046875 L 582.226562 549.492188 L 184.082031 549.492188 Z M 184.082031 523.046875 "/>
<path style=" stroke:none;fill-rule:evenodd;fill:rgb(0%,0%,0%);fill-opacity:1;" d="M 244.398438 547.171875 L 283.371094 503.714844 L 185.890625 332.109375 L 550.109375 332.109375 L 480.5625 431.53125 L 444.1875 533.363281 Z M 244.398438 547.171875 "/>
<path style=" stroke:none;fill-rule:evenodd;fill:rgb(0%,0%,0%);fill-opacity:1;" d="M 523.601562 547.171875 L 484.628906 503.714844 L 582.109375 332.109375 L 217.890625 332.109375 L 287.4375 431.53125 L 329.347656 533.363281 Z M 523.601562 547.171875 "/>
<path style=" stroke:none;fill-rule:evenodd;fill:rgb(0%,0%,0%);fill-opacity:1;" d="M 432.761719 524.707031 C 432.761719 499.367188 410.929688 478.824219 384 478.824219 C 357.070312 478.824219 335.238281 499.367188 335.238281 524.707031 C 335.238281 550.046875 357.070312 570.589844 384 570.589844 C 410.929688 570.589844 432.761719 550.046875 432.761719 524.707031 Z M 432.761719 524.707031 "/>
<path style=" stroke:none;fill-rule:evenodd;fill:rgb(0%,60%,0%);fill-opacity:1;" d="M 383.5625 461.703125 C 345.023438 461.78125 311.828125 488.789062 304.046875 526.390625 C 304.164062 526.417969 304.285156 526.445312 304.390625 526.46875 C 304.4375 526.136719 304.460938 525.796875 304.53125 525.46875 C 304.96875 523.46875 309.089844 522.472656 310.484375 523.96875 C 310.792969 524.300781 311.050781 524.664062 311.296875 525.03125 C 311.453125 524.949219 311.660156 524.933594 311.859375 524.90625 C 311.859375 524.851562 311.84375 524.792969 311.84375 524.734375 C 311.84375 524.300781 312.632812 524.359375 313.0625 524.3125 C 314.917969 524.117188 316.757812 524.078125 318.59375 524.09375 C 319.085938 523.339844 319.65625 523.03125 320.265625 523.0625 C 320.339844 522.976562 320.40625 522.882812 320.484375 522.796875 C 321.085938 522.117188 322.285156 522.976562 323.1875 523.0625 C 328.628906 522.886719 334.082031 522.613281 339.515625 522.21875 C 339.925781 522.175781 340.339844 522.140625 340.75 522.09375 C 340.996094 521.214844 341.277344 520.339844 341.609375 519.484375 C 341.882812 518.78125 343.121094 519.449219 343.875 519.4375 C 344.285156 519.429688 344.84375 519.441406 345.328125 519.4375 C 345.367188 518.957031 345.699219 519.183594 347.109375 519.421875 L 347.125 519.421875 C 348.78125 519.410156 350.476562 519.386719 351.703125 519.40625 C 352.808594 519.421875 354.222656 518.824219 355.25 519.015625 C 355.59375 519.078125 355.894531 519.226562 356.125 519.515625 C 356.261719 519.683594 356.371094 519.871094 356.5 520.046875 C 359.902344 520.882812 361.09375 522.75 359.703125 526.09375 L 359.703125 526.109375 C 360.621094 528.386719 361.429688 530.734375 362.46875 532.9375 C 361.699219 533.316406 360.949219 533.757812 360.1875 534.15625 C 360.375 534.5 360.5625 534.84375 360.75 535.1875 C 362.328125 535.289062 363.953125 535.394531 365.203125 535.484375 C 373.136719 535.917969 375.53125 535.851562 383.21875 536.984375 C 385.253906 537.285156 386.644531 537.558594 387.890625 537.8125 C 392.863281 537.378906 397.832031 536.824219 402.796875 536.3125 C 405.398438 536.042969 409.519531 535.605469 413.40625 535.1875 C 413.46875 533.382812 413.683594 531.578125 413.96875 529.859375 C 414.105469 529.039062 415.160156 529.199219 416.21875 529.359375 C 416.90625 528.886719 418.210938 529.226562 419.40625 529.40625 C 420.78125 529.339844 422.148438 529.285156 423.28125 529.3125 C 426.84375 529.054688 432.03125 528.683594 434.359375 528.625 C 435.046875 528.605469 435.730469 528.640625 436.421875 528.671875 C 436.5 528.128906 436.550781 527.714844 436.640625 527.125 C 436.914062 525.367188 440.019531 526.019531 441.734375 525.546875 C 443.273438 525.121094 444.664062 524.804688 446.046875 524.515625 C 446.09375 524.507812 446.144531 524.484375 446.1875 524.484375 C 447.242188 524.265625 448.289062 524.0625 449.453125 523.828125 C 449.734375 525.445312 450.019531 526.816406 450.3125 528.078125 C 451.570312 527.867188 452.578125 527.699219 453.8125 527.5 C 453.78125 527.464844 453.765625 527.441406 453.734375 527.40625 C 455.773438 527.140625 458.535156 525.117188 459.9375 526.40625 C 460.78125 526.03125 461.570312 525.75 461.734375 526.421875 C 461.886719 527.046875 461.972656 527.476562 462.109375 528.046875 C 462.574219 527.953125 463.035156 527.863281 463.5 527.765625 C 456.265625 489.460938 422.6875 461.710938 383.5625 461.703125 Z M 361.9375 537.375 C 362.027344 537.539062 362.113281 537.699219 362.203125 537.859375 C 362.441406 537.941406 362.695312 538.011719 362.953125 538.078125 C 362.875 537.976562 362.804688 537.863281 362.71875 537.765625 C 362.578125 537.609375 362.269531 537.480469 361.9375 537.375 Z M 361.9375 537.375 "/>
<path style=" stroke:none;fill-rule:evenodd;fill:rgb(0%,0%,0%);fill-opacity:1;" d="M 433.234375 517.265625 C 433.234375 498.277344 411.191406 482.882812 384 482.882812 C 356.808594 482.882812 334.765625 498.277344 334.765625 517.265625 C 334.765625 536.257812 356.808594 551.648438 384 551.648438 C 411.191406 551.648438 433.234375 536.257812 433.234375 517.265625 Z M 433.234375 517.265625 "/>
<path style=" stroke:none;fill-rule:evenodd;fill:rgb(0%,0%,0%);fill-opacity:1;" d="M 460.324219 496.671875 L 416.386719 531.519531 L 386.460938 510.6875 L 302.371094 534.929688 L 465.628906 537.960938 Z M 460.324219 496.671875 "/>
<path style=" stroke:none;fill-rule:evenodd;fill:rgb(0%,0%,0%);fill-opacity:1;" d="M 307.675781 496.671875 L 351.613281 531.519531 L 381.539062 510.6875 L 465.628906 534.929688 L 302.371094 537.960938 Z M 307.675781 496.671875 "/>
<path style=" stroke:none;fill-rule:evenodd;fill:rgb(0%,0%,0%);fill-opacity:1;" d="M 385.640625 482.875 C 371.347656 482.449219 359.769531 487.914062 354.5 497.578125 C 348.628906 508.453125 351.558594 523.019531 362.171875 535.734375 C 363.671875 535.71875 365.253906 535.710938 366.828125 535.71875 C 370.003906 535.738281 373.152344 535.792969 375.484375 535.828125 C 386.316406 535.980469 397.140625 536.203125 407.96875 536.5 C 408.296875 536.496094 408.625 536.488281 408.96875 536.5 C 410.375 536.542969 410.300781 536.550781 411.15625 536.578125 C 414.507812 536.695312 418.226562 536.8125 421.953125 536.953125 C 422.664062 536.980469 422.382812 536.964844 423.34375 537 C 423.667969 537.015625 423.988281 537.03125 424.3125 537.046875 C 427.238281 537.164062 430.140625 537.304688 432.796875 537.46875 C 435.398438 537.628906 438.039062 537.527344 440.59375 538.015625 C 441.515625 538.082031 442.4375 538.167969 443.359375 538.234375 C 446.945312 521.933594 434.746094 502.164062 414.1875 490.953125 C 405.058594 485.980469 395.066406 483.152344 385.640625 482.875 Z M 385.640625 482.875 "/>
<path style=" stroke:none;fill-rule:evenodd;fill:rgb(0%,0%,0%);fill-opacity:1;" d="M 382.703125 482.875 C 397 482.449219 408.574219 487.914062 413.84375 497.578125 C 419.714844 508.453125 416.785156 523.019531 406.171875 535.734375 C 404.671875 535.71875 403.089844 535.710938 401.515625 535.71875 C 398.339844 535.734375 395.195312 535.792969 392.859375 535.828125 C 382.03125 535.980469 371.203125 536.199219 360.375 536.5 C 360.046875 536.496094 359.71875 536.488281 359.375 536.5 C 357.972656 536.542969 358.046875 536.550781 357.1875 536.578125 C 353.835938 536.691406 350.121094 536.8125 346.390625 536.953125 C 345.683594 536.980469 345.960938 536.960938 345 536.996094 C 344.679688 537.015625 344.355469 537.027344 344.03125 537.042969 C 341.109375 537.160156 338.203125 537.300781 335.546875 537.464844 C 332.949219 537.625 330.308594 537.523438 327.75 538.011719 C 326.832031 538.074219 325.910156 538.164062 324.984375 538.230469 C 321.402344 521.929688 333.601562 502.160156 354.15625 490.949219 C 363.285156 485.976562 373.28125 483.148438 382.703125 482.871094 Z M 382.703125 482.875 "/>
<path style=" stroke:none;fill-rule:evenodd;fill:rgb(0%,0%,0%);fill-opacity:1;" d="M 184.925781 580.960938 L 583.074219 580.960938 L 583.074219 609.582031 L 184.925781 609.582031 Z M 184.925781 580.960938 "/>
<path style=" stroke:none;fill-rule:evenodd;fill:rgb(0%,0%,0%);fill-opacity:1;" d="M 247.839844 585.265625 L 247.839844 641.34375 L 280.441406 641.34375 L 280.441406 585.265625 Z M 247.839844 585.265625 "/>
<path style=" stroke:none;fill-rule:evenodd;fill:rgb(0%,0%,0%);fill-opacity:1;" d="M 520.160156 585.265625 L 520.160156 641.34375 L 487.558594 641.34375 L 487.558594 585.265625 Z M 520.160156 585.265625 "/>
<path style=" stroke:none;fill-rule:evenodd;fill:rgb(0%,0%,0%);fill-opacity:1;" d="M 41.835938 284.226562 L 725.945312 284.226562 L 725.945312 316.304688 L 41.835938 316.304688 Z M 41.835938 284.226562 "/>
<path style=" stroke:none;fill-rule:evenodd;fill:rgb(0%,0%,0%);fill-opacity:1;" d="M 91.054688 295.308594 L 108.28125 105.816406 L 149.007812 105.816406 L 165.496094 262.089844 L 231.941406 262.089844 L 188.261719 292.847656 Z M 91.054688 295.308594 "/>
<path style=" stroke:none;fill-rule:evenodd;fill:rgb(0%,0%,0%);fill-opacity:1;" d="M 384 180.261719 L 546.9375 297.160156 L 221.0625 299 Z M 384 180.261719 "/>
<path style=" stroke:none;fill-rule:evenodd;fill:rgb(0%,0%,0%);fill-opacity:1;" d="M 676.722656 295.308594 L 659.496094 105.816406 L 618.769531 105.816406 L 602.28125 262.089844 L 535.835938 262.089844 L 579.519531 292.847656 Z M 676.722656 295.308594 "/>
</g>
</svg>
